<?xml version="1.0" encoding="UTF-8"?>
<svg id="Layer_1" xmlns="http://www.w3.org/2000/svg" version="1.1" viewBox="0 0 360 182.3">
  <!-- Generator: Adobe Illustrator 29.1.0, SVG Export Plug-In . SVG Version: 2.1.0 Build 142)  -->
  <defs>
    <style>
      .st0 {
        fill: #f2f2f3;
      }

      .st1 {
        fill: none;
        stroke: #736d4f;
        stroke-miterlimit: 10;
        stroke-width: 1.35px;
      }

      .st2 {
        fill: #736d4f;
      }

      .st3 {
        fill: #a2a8a5;
      }
    </style>
  </defs>
  <ellipse class="st3" cx="180" cy="91.09" rx="176.76" ry="87.48"/>
  <g>
    <path class="st2" d="M327.55,91.09c0,6.58-15.33,8.55-19.89,14.48-3.72,4.85.83,19.77-5.49,23.98-5.23,3.49-18.13-5.81-24.88-2.86-5.9,2.58-7.38,18.37-14.28,20.46-6.26,1.9-16.44-10.32-23.4-8.87-6.47,1.34-10.83,16.62-17.81,17.53-6.61.86-14.79-12.76-21.77-12.32-6.69.42-13.07,14.98-20.03,14.98s-13.34-14.56-20.03-14.98-15.17,13.19-21.77,12.32c-6.98-.91-11.34-16.19-17.82-17.53-6.96-1.44-17.14,10.77-23.4,8.87-6.9-2.09-8.38-17.89-14.28-20.46-6.75-2.95-19.65,6.35-24.88,2.86-6.32-4.22-1.76-19.13-5.49-23.98-4.55-5.93-19.89-7.89-19.89-14.47s15.33-8.55,19.89-14.48c3.72-4.85-.83-19.77,5.49-23.98,5.23-3.49,18.13,5.81,24.88,2.86,5.9-2.58,7.38-18.37,14.28-20.46,6.26-1.9,16.44,10.32,23.4,8.87,6.47-1.34,10.83-16.62,17.81-17.53,6.61-.86,14.79,12.76,21.77,12.32s13.07-14.98,20.03-14.98,13.34,14.56,20.03,14.98,15.17-13.19,21.77-12.32c6.98.91,11.34,16.19,17.82,17.53,6.96,1.44,17.14-10.77,23.4-8.87,6.9,2.09,8.38,17.89,14.28,20.46,6.75,2.95,19.65-6.35,24.88-2.86,6.32,4.22,1.76,19.13,5.49,23.98,4.55,5.93,19.89,7.89,19.89,14.47Z"/>
    <path class="st1" d="M327.55,91.09c0,6.58-15.33,8.55-19.89,14.48-3.72,4.85.83,19.77-5.49,23.98-5.23,3.49-18.13-5.81-24.88-2.86-5.9,2.58-7.38,18.37-14.28,20.46-6.26,1.9-16.44-10.32-23.4-8.87-6.47,1.34-10.83,16.62-17.81,17.53-6.61.86-14.79-12.76-21.77-12.32-6.69.42-13.07,14.98-20.03,14.98s-13.34-14.56-20.03-14.98-15.17,13.19-21.77,12.32c-6.98-.91-11.34-16.19-17.82-17.53-6.96-1.44-17.14,10.77-23.4,8.87-6.9-2.09-8.38-17.89-14.28-20.46-6.75-2.95-19.65,6.35-24.88,2.86-6.32-4.22-1.76-19.13-5.49-23.98-4.55-5.93-19.89-7.89-19.89-14.47s15.33-8.55,19.89-14.48c3.72-4.85-.83-19.77,5.49-23.98,5.23-3.49,18.13,5.81,24.88,2.86,5.9-2.58,7.38-18.37,14.28-20.46,6.26-1.9,16.44,10.32,23.4,8.87,6.47-1.34,10.83-16.62,17.81-17.53,6.61-.86,14.79,12.76,21.77,12.32s13.07-14.98,20.03-14.98,13.34,14.56,20.03,14.98,15.17-13.19,21.77-12.32c6.98.91,11.34,16.19,17.82,17.53,6.96,1.44,17.14-10.77,23.4-8.87,6.9,2.09,8.38,17.89,14.28,20.46,6.75,2.95,19.65-6.35,24.88-2.86,6.32,4.22,1.76,19.13,5.49,23.98,4.55,5.93,19.89,7.89,19.89,14.47Z"/>
  </g>
  <g>
    <path class="st0" d="M74.73,99.09c-1.72,1.2-3.95,1.65-6.32,1.65h-11.12c-.16,0-.23-.06-.19-.23l.1-.68c.03-.13.1-.19.26-.19l1.17-.06c.75-.03.84-.32,1.23-2.92l1.91-13.71c.36-2.59.32-2.88-.39-2.92l-1.26-.06c-.19,0-.26-.06-.23-.23l.1-.68c.03-.16.1-.19.26-.19h10.92c3.18,0,6.25,1.13,6.25,4.5,0,1.43-.55,2.79-1.56,3.76-1.17,1.13-2.79,1.78-5.25,1.94v.13c3.79-.13,6.77,1.17,6.77,4.76,0,2.3-1,3.99-2.66,5.12ZM67.92,90.04h-1.65l-1.33,9.43h2.3c1.52,0,2.72-.55,3.44-1.98.55-1.2.78-2.63.78-3.99,0-2.5-1.13-3.47-3.53-3.47ZM69.09,80.16h-1.43l-1.2,8.59h1.36c1.65,0,2.79-.55,3.4-2.04.39-1.04.58-2.24.58-3.47,0-2.27-.97-3.08-2.72-3.08Z"/>
    <path class="st0" d="M90.06,98.6c0-.45.03-.97.13-1.52h-.06c-1.75,2.37-3.44,4.08-6.03,4.08-2.88,0-4.7-2.17-4.7-6.03,0-3.27.94-6.74,2.95-9.14,1.26-1.56,3.18-2.56,5.38-2.56,2.04,0,3.34.68,4.34,1.94h.1l3.47-1.62c.19-.1.29-.13.52-.13h.45c.19,0,.23.06.19.26l-1.78,12.64c-.26,1.94-.13,2.62.55,2.62.42,0,.75-.29,1.04-.78.1-.2.16-.26.29-.16l.58.23c.13.06.16.13.03.36-.75,1.46-2.2,2.3-4.34,2.3-2.01,0-3.11-1.04-3.11-2.5ZM86.49,98.7c1.26,0,2.4-1.36,3.63-3.08l1.3-9.2c-.39-.84-1.26-1.36-2.3-1.36-1.65,0-2.75,1.2-3.47,3.66-.65,2.07-.97,4.8-.97,6.45,0,1.82.29,3.53,1.81,3.53Z"/>
    <path class="st0" d="M108.43,97.63l-1.75-4.25-1.36,2.24-.65,4.86c-.03.23-.1.26-.26.26h-4.54c-.23,0-.26-.06-.23-.29l2.79-19.71c.36-2.63.29-2.88-.49-2.92l-1.1-.03c-.16,0-.23-.06-.19-.23l.06-.62c.03-.16.1-.19.26-.19h6.74c.23,0,.26.06.23.29l-2.2,15.72h.06c1.07-1.81,2.63-4.28,3.79-5.87,1.36-1.85,2.79-3.47,4.89-3.47,1.36,0,2.69,1.1,2.69,2.27s-1.23,2.17-2.27,2.17c-.84,0-1.46-.71-1.81-2.27-.94.13-1.98,1.23-3.14,3.01l3.27,7.58c.88,2.07,1.26,2.62,1.85,2.62.42,0,.75-.29,1-.78.1-.16.16-.23.29-.16l.55.26c.16.07.16.13.06.36-.68,1.46-2.37,2.66-4.38,2.66-2.27,0-3.24-1.2-4.18-3.53Z"/>
    <path class="st0" d="M123.7,92.9h-.62c-.1.68-.13,1.43-.13,2.07,0,2.66.81,4.34,3.31,4.34,2.33,0,4.12-1.46,4.89-4.12.03-.19.1-.29.29-.26l.62.19c.16.03.16.13.13.32-.97,3.31-3.47,5.7-8.01,5.7-3.92,0-6.51-2.07-6.51-6.22,0-6.16,3.14-11.51,9.85-11.51,2.79,0,5.54,1.04,5.54,3.86,0,4.41-5.09,5.61-9.37,5.61ZM126.97,84.57c-2.4,0-3.21,3.95-3.76,7.23h.42c2.72,0,4.86-1.56,4.86-5.22,0-1.33-.52-2.01-1.52-2.01Z"/>
    <path class="st0" d="M133.52,97.63c0-1.2.81-1.88,2.3-1.88,1.26,0,2.04.58,2.04,1.62,0,.88-.36,1.59-.91,2.24.52.23,1.2.32,1.88.32,1.78,0,2.92-.81,2.92-2.43,0-3.37-6.71-3.99-6.71-8.88,0-2.37,2.01-5.19,6.61-5.19,3.14,0,5.44,1.39,5.44,3.4,0,1.2-.75,1.85-2.2,1.85-1.23,0-1.98-.58-1.98-1.59,0-.75.32-1.49.91-2.14-.52-.23-1.13-.32-1.78-.32-1.56,0-2.37.88-2.37,2.2,0,3.21,6.77,4.02,6.77,8.75,0,3.44-2.79,5.58-7.13,5.58-3.92,0-5.8-1.69-5.8-3.53Z"/>
    <path class="st0" d="M173.12,98.6c-1.3,1.56-3.21,2.56-5.51,2.56-2.17,0-3.47-.71-4.5-1.95h-.1l-3.47,1.59c-.19.13-.29.16-.49.16h-.45c-.19,0-.26-.07-.23-.26l2.82-19.96c.36-2.63.32-2.88-.45-2.92l-1.13-.03c-.16,0-.23-.06-.19-.23l.1-.62c.03-.16.1-.19.26-.19h6.74c.23,0,.26.06.23.29l-1.43,10.01h.1c1.56-2.04,3.27-3.63,5.83-3.63,2.98,0,4.8,2.17,4.8,6.03,0,3.27-.91,6.74-2.92,9.14ZM168.84,85.9c-1.3,0-2.53,1.33-3.79,3.08l-1.3,9.2c.39.81,1.33,1.33,2.43,1.33,1.75,0,2.88-1.2,3.63-3.63.62-2.07.94-4.83.94-6.48,0-1.78-.32-3.5-1.91-3.5Z"/>
    <path class="st0" d="M176.2,104.24c0-1.3.81-1.91,2.33-1.91,1.3,0,2.01.65,2.01,1.62,0,.68-.39,1.33-.75,1.81,1.85.26,3.44-1.59,4.44-4.83.03-.13-.03-.19-.16-.19h-1.26c-.13,0-.19-.06-.26-.23l-3.5-12.57c-.78-2.79-.97-2.98-1.85-3.01l-.52-.03c-.16,0-.19-.06-.16-.23l.06-.62c.03-.16.1-.19.26-.19h6.03c.23,0,.29.06.36.26l2.88,11.54h.07l1.17-4.18c1.65-6,2.33-8.04,4.08-8.04,1.17,0,1.98,1.3,1.98,2.3,0,1.13-.97,1.72-3.08,1.98-.94,1.46-1.69,3.99-3.18,9.01-2.01,7-3.99,10.5-7.52,10.5-2.04,0-3.44-1.17-3.44-2.98Z"/>
    <path class="st0" d="M208.8,101.16c-1.82,0-3.89-.42-5.38-1.04l-.1.45c-.06.23-.1.29-.29.29h-.52c-.16,0-.26-.06-.23-.26l.65-7.13c.03-.23.06-.29.26-.29h.71c.16,0,.19.06.19.26l-.03,1.17c-.13,3.01,1.59,5.35,4.73,5.35,2.27,0,4.02-1.23,4.02-3.47,0-2.01-1.59-3.08-4.02-4.8-2.5-1.75-4.34-3.44-4.34-6.58,0-3.66,2.85-6.68,7.78-6.68,1.59,0,3.37.36,4.67,1l.1-.45c.06-.23.13-.29.32-.29h.49c.23,0,.26.06.23.29l-.94,6.32c-.03.19-.07.26-.26.26h-.71c-.16,0-.19-.06-.19-.26l.03-.75c.19-2.98-1.26-4.93-3.86-4.93-2.2,0-3.14,1.39-3.14,3.01,0,1.98,1.65,3.18,3.82,4.67,2.43,1.69,4.73,3.4,4.73,6.77,0,4.28-3.5,7.07-8.72,7.07Z"/>
    <path class="st0" d="M220.86,100.74c-.19,0-.26-.06-.23-.29l1.78-12.64c.36-2.62.26-2.85-.49-2.88l-1.13-.03c-.16,0-.23-.06-.19-.23l.1-.62c.03-.16.1-.19.26-.19h6.45c.23,0,.26.06.23.29l-.49,3.37h.1c1.39-2.53,2.79-4.08,4.6-4.08,1.62,0,2.56,1.26,2.56,3.11,0,1.65-.81,2.56-2.53,2.56-1.39,0-2.14-.65-2.14-1.62-.07-.65.26-1.3.84-1.75-1.26.06-2.04,1.04-3.34,3.34l-1.59,11.41c-.03.23-.1.26-.26.26h-4.54Z"/>
    <path class="st0" d="M235.12,100.9c-.19,0-.26-.06-.23-.29l1.81-12.8c.36-2.62.29-2.85-.49-2.88l-1.13-.03c-.16,0-.19-.06-.16-.23l.07-.62c.03-.16.1-.19.26-.19h6.77c.19,0,.26.06.23.29l-1.78,12.61c-.39,2.62-.32,2.92.45,2.92h1.13c.16,0,.2.1.16.23l-.06.65c-.03.16-.1.19-.29.19l-6.74.16ZM240.4,81.36c-1.56,0-2.72-.68-2.72-2.24,0-1.72,1.26-2.82,3.08-2.82,1.52,0,2.59.88,2.59,2.27,0,1.78-1.33,2.79-2.95,2.79Z"/>
    <path class="st0" d="M244.03,97.63c0-1.2.81-1.88,2.3-1.88,1.26,0,2.04.58,2.04,1.62,0,.88-.36,1.59-.91,2.24.52.23,1.2.32,1.88.32,1.78,0,2.92-.81,2.92-2.43,0-3.37-6.71-3.99-6.71-8.88,0-2.37,2.01-5.19,6.61-5.19,3.14,0,5.45,1.39,5.45,3.4,0,1.2-.75,1.85-2.2,1.85-1.23,0-1.98-.58-1.98-1.59,0-.75.32-1.49.91-2.14-.52-.23-1.13-.32-1.78-.32-1.56,0-2.37.88-2.37,2.2,0,3.21,6.77,4.02,6.77,8.75,0,3.44-2.79,5.58-7.13,5.58-3.92,0-5.8-1.69-5.8-3.53Z"/>
    <path class="st0" d="M270.15,100.9c-.23,0-.26-.06-.23-.29l1.56-11.05c.1-.65.16-1.23.16-1.75,0-1.07-.36-1.94-1.49-1.94-1.49,0-2.75,1.65-3.86,3.11l-1.62,11.51c-.03.23-.07.26-.23.26h-4.57c-.19,0-.26-.06-.23-.29l2.79-19.71c.36-2.63.29-2.88-.45-2.92l-1.13-.03c-.16,0-.23-.06-.19-.23l.1-.62c.03-.16.06-.19.23-.19h6.77c.23,0,.26.06.23.29l-1.43,10.01h.1c1.59-2.07,3.31-3.63,5.74-3.63s4.31,1.62,4.31,4.05c0,.68-.1,1.33-.19,2.01l-1,7.26c-.39,2.62-.32,2.92.45,2.92h1.13c.16,0,.2.1.16.23l-.1.65c-.03.16-.1.19-.26.19l-6.74.16Z"/>
    <path class="st0" d="M280.46,97.21c0-.68.07-1.2.16-1.85l1.43-10.11h-1.91c-.2,0-.29-.03-.26-.23l.13-.88c.03-.16.1-.23.26-.23l1.98-.06.42-3.01c.03-.29.13-.36.36-.42,1.2-.42,3.44-1.23,4.38-1.85.16-.13.23-.19.39-.19h.03c.19,0,.23.06.19.23l-.75,5.25h3.31c.16,0,.26.03.23.19l-.13,1c-.03.16-.1.19-.26.19h-3.34l-1.52,10.6c-.07.58-.16,1.2-.16,1.81,0,.84.36,1.52,1.2,1.52,1.04,0,1.88-1.17,2.3-2.59.07-.19.1-.26.29-.23l.58.16c.19.03.19.16.16.32-.71,2.3-2.33,4.31-5.28,4.31-2.46,0-4.18-1.49-4.18-3.95Z"/>
    <path class="st0" d="M292.61,100.9c-.19,0-.26-.06-.23-.29l1.81-12.8c.36-2.62.29-2.85-.49-2.88l-1.13-.03c-.16,0-.19-.06-.16-.23l.07-.62c.03-.16.1-.19.26-.19h6.77c.19,0,.26.06.23.29l-1.78,12.61c-.39,2.62-.32,2.92.45,2.92h1.13c.16,0,.2.1.16.23l-.06.65c-.03.16-.1.19-.29.19l-6.74.16ZM297.9,81.36c-1.56,0-2.72-.68-2.72-2.24,0-1.72,1.26-2.82,3.08-2.82,1.52,0,2.59.88,2.59,2.27,0,1.78-1.33,2.79-2.95,2.79Z"/>
  </g>
  <g>
    <path class="st0" d="M24.16,114.51l-4.81,3.66,6.17-1.86.12.16-3.44,5.46,4.81-3.66.32.42-5.41,4.12-.48-.63,3.21-5.09-5.76,1.75-.48-.64,5.41-4.12.33.43Z"/>
    <path class="st0" d="M20.86,109.07l-1.13,1.38,1.65,2.85,1.76-.3.3.51-7.15,1.22-.33-.57,4.61-5.6.3.51ZM16.61,114.16l4.22-.74-1.48-2.56-2.74,3.3Z"/>
    <path class="st0" d="M20.28,107.92l-6.3,2.56-.75-1.83c-.73-1.78.24-3.48,1.97-4.18,1.75-.71,3.6-.16,4.33,1.61l.75,1.83ZM19.58,107.63l-.55-1.34c-.62-1.51-2.15-1.9-3.63-1.3-1.47.6-2.31,1.94-1.69,3.46l.55,1.34,5.32-2.17Z"/>
    <path class="st0" d="M18.05,102.12l-6.61,1.62-.94-3.81.51-.13.81,3.3,2.45-.6-.79-3.24.52-.13.79,3.24,2.61-.64-.81-3.3.51-.13.94,3.81Z"/>
    <path class="st0" d="M16.65,90.29l-5.89,1.27,5.79,1.69-.02.59-6.86,1.53.02-.59,6.04-1.28-5.93-1.74.02-.48,6.04-1.3-5.93-1.71.02-.59,6.73,2.01-.02.59Z"/>
    <path class="st0" d="M16.91,87.2l-6.73-.98.08-.52,6.73.98-.08.52Z"/>
    <path class="st0" d="M17.56,83.77l-6.09-1.5-.49,1.97-.52-.13,1.1-4.46.52.13-.49,1.97,6.09,1.5-.13.52Z"/>
    <path class="st0" d="M20.12,76.33l-2.99-1.22-1.49,3.63,2.99,1.22-.2.49-6.29-2.58.2-.49,2.81,1.15,1.49-3.63-2.81-1.15.2-.5,6.29,2.57-.2.5Z"/>
    <path class="st0" d="M22.09,72.64l-5.75-3.62.28-.45,5.3,3.34,1.6-2.54.45.28-1.88,2.99Z"/>
    <path class="st0" d="M20.56,62.67c1.11-1.43,3.06-1.43,4.62-.2,1.57,1.22,2.04,3.11.93,4.53-1.12,1.43-3.06,1.43-4.62.2-1.57-1.22-2.04-3.1-.93-4.53ZM20.98,63c-.92,1.18-.52,2.7.85,3.77,1.35,1.05,2.94,1.09,3.86-.09.91-1.17.5-2.71-.85-3.77-1.37-1.07-2.95-1.08-3.86.09Z"/>
    <path class="st0" d="M29.85,62.47l-6.68-2.86.42-.44,6,2.62-2.9-5.87.42-.44,3.18,6.52-.46.48Z"/>
    <path class="st0" d="M32.66,59.63l-4.56-5.05,2.91-2.63.36.39-2.52,2.28,1.69,1.87,2.47-2.23.36.39-2.47,2.23,1.8,2,2.52-2.28.36.39-2.91,2.63Z"/>
    <path class="st0" d="M36.2,55.46c.17-.14.45-.11.6.07.16.19.14.48-.03.62s-.45.1-.61-.09c-.15-.18-.14-.46.03-.6Z"/>
    <path class="st0" d="M44.17,50.44l-3.5-4.91,1.67,6.22-.17.12-5.35-3.6,3.5,4.91-.43.31-3.95-5.54.64-.46,4.99,3.37-1.57-5.81.65-.46,3.95,5.54-.44.31Z"/>
    <path class="st0" d="M49.62,46.95l-1.41-1.08-2.79,1.75.36,1.75-.5.32-1.47-7.11.56-.35,5.76,4.41-.5.32ZM44.39,42.89l.89,4.2,2.51-1.58-3.4-2.62Z"/>
    <path class="st0" d="M50.87,46.22l-3.34-5.92,1.72-.97c1.67-.94,3.48-.19,4.4,1.43.93,1.64.62,3.55-1.06,4.49l-1.72.97ZM51.07,45.5l1.26-.71c1.42-.8,1.61-2.37.83-3.76-.78-1.39-2.22-2.05-3.65-1.24l-1.26.71,2.82,5Z"/>
    <path class="st0" d="M56.42,43.14l-3.09-6.06,3.5-1.79.24.47-3.03,1.55,1.15,2.24,2.97-1.52.24.47-2.97,1.52,1.22,2.4,3.03-1.55.24.47-3.5,1.79Z"/>
    <path class="st0" d="M67.51,37.84l-3.73-4.74,1.01,5.95-.54.24-4.38-5.5.54-.24,3.79,4.87-1.04-6.09.44-.2,3.81,4.86-1.06-6.08.54-.24,1.15,6.93-.54.24Z"/>
    <path class="st0" d="M70.52,36.58l-2.58-6.29.49-.2,2.58,6.29-.49.2Z"/>
    <path class="st0" d="M73.87,35.24l-2.27-5.85-1.89.73-.19-.49,4.27-1.66.19.49-1.89.73,2.27,5.85-.5.19Z"/>
    <path class="st0" d="M81.44,32.45l-1.08-3.04-3.7,1.32,1.08,3.04-.5.18-2.28-6.4.5-.18,1.02,2.86,3.7-1.32-1.02-2.86.51-.18,2.28,6.4-.51.18Z"/>
    <path class="st0" d="M85.62,31.05l-2.05-6.48.5-.16,1.89,5.98,2.86-.9.16.51-3.36,1.06Z"/>
    <path class="st0" d="M90.47,22.33c1.74-.51,3.32.63,3.87,2.54.56,1.91-.17,3.71-1.9,4.22-1.75.51-3.32-.63-3.87-2.54-.56-1.91.16-3.71,1.9-4.22ZM90.62,22.84c-1.44.42-2,1.89-1.52,3.55.48,1.65,1.74,2.61,3.19,2.19,1.43-.42,2-1.91,1.52-3.56-.49-1.67-1.76-2.6-3.19-2.19Z"/>
    <path class="st0" d="M98.18,27.37l-4.18-5.93.59-.16,3.74,5.37.62-6.52.59-.16-.72,7.22-.64.17Z"/>
    <path class="st0" d="M102.11,26.36l-1.6-6.62,3.81-.92.12.52-3.3.8.59,2.45,3.24-.78.12.52-3.24.78.63,2.62,3.3-.8.12.52-3.81.92Z"/>
    <path class="st0" d="M107.26,24.32c.22-.05.45.11.5.33.05.24-.09.49-.31.54s-.45-.12-.5-.36c-.05-.23.08-.47.3-.52Z"/>
    <path class="st0" d="M116.64,23.16l-1.19-5.92-1.02,6.36-.2.04-3.41-5.47,1.19,5.92-.52.1-1.34-6.67.77-.16,3.18,5.11.94-5.94.78-.16,1.34,6.67-.53.11Z"/>
    <path class="st0" d="M123.07,21.99l-.91-1.54-3.24.58-.32,1.76-.58.1,1.3-7.14.65-.12,3.69,6.25-.58.1ZM119.74,16.26l-.75,4.23,2.92-.52-2.17-3.7Z"/>
    <path class="st0" d="M124.5,21.75l-1.06-6.72,1.95-.31c1.9-.3,3.33,1.04,3.62,2.88.29,1.86-.66,3.54-2.56,3.84l-1.95.31ZM124.94,21.15l1.43-.22c1.61-.25,2.34-1.66,2.09-3.23-.25-1.57-1.36-2.7-2.99-2.44l-1.43.22.89,5.67Z"/>
    <path class="st0" d="M130.83,20.78l-.94-6.74,3.89-.54.07.53-3.37.46.35,2.5,3.3-.45.07.52-3.3.46.37,2.67,3.37-.46.07.53-3.89.54Z"/>
    <path class="st0" d="M143.07,19.25l-2.12-5.64-.84,5.97-.59.07-2.51-6.56.59-.07,2.14,5.78.86-6.12.48-.05,2.16,5.78.83-6.11.59-.07-1.01,6.95-.59.07Z"/>
    <path class="st0" d="M146.34,18.92l-.65-6.77.53-.05.65,6.77-.53.05Z"/>
    <path class="st0" d="M149.97,18.59l-.53-6.25-2.02.17-.04-.53,4.57-.38.04.53-2.02.17.53,6.25-.54.05Z"/>
    <path class="st0" d="M158.02,17.99l-.22-3.23-3.92.26.22,3.23-.53.04-.46-6.79.53-.04.2,3.03,3.92-.26-.2-3.03.54-.04.46,6.79-.54.04Z"/>
    <path class="st0" d="M162.44,17.75l-.31-6.79.53-.02.28,6.26,3-.13.02.53-3.53.16Z"/>
    <path class="st0" d="M169.31,10.56c1.81-.05,3.05,1.44,3.11,3.43.06,1.99-1.09,3.55-2.9,3.61-1.82.05-3.05-1.44-3.11-3.43s1.08-3.55,2.9-3.61ZM169.33,11.09c-1.5.04-2.41,1.33-2.36,3.06.05,1.71,1.04,2.96,2.54,2.91,1.48-.04,2.41-1.35,2.36-3.06-.05-1.73-1.05-2.96-2.54-2.91Z"/>
    <path class="st0" d="M175.54,17.34l-2.61-6.77h.61s2.32,6.11,2.32,6.11l2.18-6.17h.61s-2.45,6.82-2.45,6.82h-.66Z"/>
    <path class="st0" d="M179.61,17.3l.05-6.8,3.92.03v.53s-3.4-.02-3.4-.02l-.02,2.52,3.33.02v.53s-3.33-.02-3.33-.02l-.02,2.69,3.4.02v.53s-3.93-.03-3.93-.03Z"/>
    <path class="st0" d="M185.09,16.55c.22,0,.42.21.41.44,0,.24-.2.46-.42.45s-.41-.22-.4-.46c0-.23.19-.44.41-.43Z"/>
    <path class="st0" d="M194.48,17.58l.2-6.03-2.45,5.96h-.2s-2.06-6.12-2.06-6.12l-.2,6.03-.53-.02.22-6.8.79.03,1.92,5.71,2.28-5.57.8.03-.22,6.8-.54-.02Z"/>
    <path class="st0" d="M201.01,17.89l-.54-1.7-3.29-.17-.71,1.64-.59-.03,2.88-6.66.66.03,2.18,6.92-.59-.03ZM199.06,11.56l-1.68,3.95,2.96.15-1.28-4.1Z"/>
    <path class="st0" d="M202.52,17.98l.47-6.79,1.97.14c1.92.13,3.01,1.75,2.89,3.62-.13,1.88-1.44,3.31-3.36,3.17l-1.97-.14ZM203.08,17.49l1.45.1c1.63.11,2.65-1.09,2.76-2.68s-.73-2.93-2.37-3.05l-1.44-.1-.4,5.73Z"/>
    <path class="st0" d="M208.9,18.43l.58-6.78,3.91.34-.04.53-3.38-.29-.21,2.51,3.32.29-.05.53-3.32-.28-.23,2.68,3.38.29-.04.53-3.91-.34Z"/>
    <path class="st0" d="M221.17,19.64l-.82-5.97-2.13,5.64-.59-.07-1-6.96.59.07.81,6.11,2.18-5.78.48.05.83,6.12,2.16-5.78.59.07-2.51,6.56-.59-.07Z"/>
    <path class="st0" d="M224.42,20.04l.87-6.75.52.07-.87,6.75-.52-.07Z"/>
    <path class="st0" d="M228.01,20.52l.86-6.21-2-.28.07-.53,4.54.63-.07.53-2-.28-.86,6.21-.53-.07Z"/>
    <path class="st0" d="M236.02,21.72l.5-3.19-3.88-.61-.5,3.19-.52-.08,1.06-6.72.52.08-.47,3,3.88.61.47-3,.53.08-1.06,6.72-.53-.08Z"/>
    <path class="st0" d="M240.38,22.48l1.24-6.69.52.1-1.15,6.17,2.95.55-.1.52-3.47-.64Z"/>
    <path class="st0" d="M248.72,17.04c1.77.36,2.64,2.1,2.24,4.05-.4,1.95-1.88,3.21-3.65,2.84-1.78-.36-2.64-2.1-2.24-4.05.4-1.95,1.87-3.21,3.65-2.84ZM248.62,17.56c-1.47-.3-2.65.74-3,2.44-.34,1.68.33,3.12,1.8,3.42,1.46.3,2.66-.76,3-2.44.35-1.7-.35-3.12-1.8-3.42Z"/>
    <path class="st0" d="M253.19,25.07l-.96-7.19.6.14.83,6.49,3.56-5.49.6.14-3.98,6.06-.64-.15Z"/>
    <path class="st0" d="M257.15,26l1.65-6.59,3.81.95-.13.51-3.29-.82-.61,2.44,3.23.81-.13.51-3.23-.81-.65,2.61,3.29.82-.13.51-3.81-.95Z"/>
    <path class="st0" d="M262.64,26.58c.21.06.35.3.29.53-.06.24-.31.39-.52.34-.22-.06-.34-.31-.28-.55.06-.23.29-.38.51-.32Z"/>
    <path class="st0" d="M271.49,29.91l1.71-5.79-3.87,5.15-.2-.06-.46-6.43-1.71,5.79-.51-.15,1.92-6.52.76.22.42,6,3.61-4.82.76.23-1.92,6.52-.52-.15Z"/>
    <path class="st0" d="M277.7,31.91l-.07-1.78-3.13-1.02-1.11,1.4-.56-.18,4.51-5.68.63.21.3,7.25-.56-.18ZM277.47,25.28l-2.65,3.37,2.81.92-.16-4.29Z"/>
    <path class="st0" d="M279.08,32.37l2.29-6.4,1.86.67c1.81.65,2.43,2.5,1.8,4.26-.63,1.78-2.28,2.79-4.09,2.14l-1.86-.67ZM279.76,32.05l1.36.49c1.54.55,2.85-.33,3.39-1.83.54-1.5.09-3.02-1.45-3.57l-1.36-.49-1.93,5.4Z"/>
    <path class="st0" d="M285.08,34.54l2.47-6.34,3.66,1.43-.19.49-3.17-1.23-.92,2.35,3.11,1.21-.19.49-3.11-1.21-.98,2.51,3.17,1.23-.19.49-3.66-1.43Z"/>
    <path class="st0" d="M296.44,39.28l1.03-5.94-3.74,4.73-.54-.24,1.16-6.93.54.24-1.08,6.07,3.83-4.84.44.2-1.06,6.08,3.81-4.85.54.24-4.39,5.49-.54-.24Z"/>
    <path class="st0" d="M299.39,40.68l2.96-6.12.48.23-2.96,6.12-.48-.23Z"/>
    <path class="st0" d="M302.62,42.28l2.86-5.57-1.8-.92.24-.47,4.08,2.1-.24.47-1.8-.92-2.86,5.57-.48-.25Z"/>
    <path class="st0" d="M309.69,46.13l1.59-2.81-3.41-1.94-1.59,2.81-.46-.26,3.35-5.92.46.26-1.5,2.65,3.41,1.94,1.5-2.65.47.27-3.35,5.92-.47-.27Z"/>
    <path class="st0" d="M313.42,48.4l3.71-5.7.44.29-3.42,5.25,2.51,1.64-.29.44-2.95-1.93Z"/>
    <path class="st0" d="M323.29,46.77c1.46,1.07,1.53,3.01.36,4.61-1.17,1.61-3.04,2.14-4.5,1.07-1.47-1.07-1.53-3.01-.36-4.61,1.17-1.61,3.03-2.14,4.5-1.07ZM322.98,47.2c-1.22-.89-2.72-.43-3.74.97-1.01,1.38-.99,2.97.22,3.86,1.2.87,2.73.41,3.74-.97,1.02-1.4.98-2.98-.22-3.86Z"/>
    <path class="st0" d="M323.91,55.98l2.41-6.84.47.39-2.21,6.16,5.67-3.28.47.39-6.3,3.6-.51-.42Z"/>
    <path class="st0" d="M326.95,58.58l4.7-4.92,2.84,2.71-.37.38-2.46-2.35-1.74,1.82,2.41,2.3-.37.38-2.41-2.3-1.86,1.95,2.46,2.35-.37.38-2.84-2.71Z"/>
    <path class="st0" d="M331.36,61.83c.15.16.14.44-.03.61-.18.17-.47.17-.62.01-.15-.16-.12-.44.05-.61.17-.16.45-.17.6,0Z"/>
    <path class="st0" d="M336.69,69.53l4.81-3.64-6.18,1.84-.12-.16,3.45-5.45-4.81,3.64-.32-.42,5.42-4.1.48.63-3.23,5.08,5.76-1.73.48.64-5.42,4.1-.32-.43Z"/>
    <path class="st0" d="M339.96,75l1.14-1.37-1.64-2.86-1.76.29-.29-.52,7.16-1.18.33.57-4.65,5.58-.29-.52ZM344.24,69.93l-4.23.72,1.47,2.57,2.76-3.29Z"/>
    <path class="st0" d="M340.54,76.14l6.31-2.53.74,1.83c.72,1.78-.26,3.47-1.99,4.17-1.75.7-3.6.15-4.32-1.63l-.74-1.83ZM341.23,76.44l.54,1.34c.61,1.51,2.14,1.91,3.62,1.32,1.48-.59,2.32-1.93,1.71-3.46l-.54-1.34-5.33,2.14Z"/>
    <path class="st0" d="M342.72,81.92l6.62-1.59.92,3.81-.52.12-.79-3.3-2.45.59.78,3.24-.52.12-.78-3.24-2.62.63.79,3.3-.52.12-.92-3.81Z"/>
    <path class="st0" d="M344.08,93.76l5.89-1.27-5.79-1.69.02-.59,6.86-1.53-.02.59-6.04,1.28,5.93,1.74-.02.48-6.04,1.3,5.93,1.71-.02.59-6.73-2.01.02-.59Z"/>
    <path class="st0" d="M343.79,96.85l6.73,1.01-.08.52-6.73-1.01.08-.52Z"/>
    <path class="st0" d="M343.12,100.3l6.08,1.54.5-1.96.51.13-1.12,4.45-.51-.13.5-1.96-6.08-1.54.13-.52Z"/>
    <path class="st0" d="M340.53,107.7l2.98,1.24,1.5-3.63-2.98-1.24.2-.49,6.28,2.61-.2.49-2.81-1.16-1.5,3.63,2.81,1.16-.21.5-6.28-2.61.21-.5Z"/>
    <path class="st0" d="M338.54,111.4l5.74,3.64-.28.45-5.29-3.36-1.61,2.53-.45-.28,1.89-2.97Z"/>
    <path class="st0" d="M340.01,121.38c-1.12,1.42-3.06,1.42-4.62.19-1.56-1.23-2.02-3.12-.91-4.54,1.12-1.43,3.06-1.42,4.62-.19,1.56,1.23,2.03,3.11.9,4.54ZM339.6,121.05c.93-1.18.53-2.7-.83-3.77-1.35-1.06-2.93-1.1-3.86.08-.92,1.17-.51,2.71.83,3.77,1.36,1.07,2.94,1.09,3.86-.08Z"/>
    <path class="st0" d="M330.73,121.55l6.66,2.87-.42.44-5.99-2.63,2.87,5.88-.42.44-3.15-6.53.46-.48Z"/>
    <path class="st0" d="M327.92,124.38l4.55,5.06-2.92,2.63-.35-.39,2.52-2.27-1.68-1.87-2.48,2.23-.35-.39,2.48-2.23-1.8-2-2.52,2.27-.36-.39,2.92-2.63Z"/>
    <path class="st0" d="M324.34,128.56c-.17.14-.45.11-.6-.07-.16-.19-.14-.48.03-.62s.45-.09.61.09c.15.18.14.46-.04.6Z"/>
    <path class="st0" d="M316.38,133.54l3.5,4.92-1.66-6.23.17-.12,5.34,3.61-3.5-4.92.43-.31,3.94,5.55-.64.46-4.98-3.38,1.56,5.81-.65.46-3.94-5.55.44-.31Z"/>
    <path class="st0" d="M310.92,137.02l1.41,1.09,2.79-1.75-.36-1.75.5-.32,1.45,7.11-.56.35-5.75-4.42.5-.32ZM316.14,141.09l-.88-4.2-2.51,1.57,3.39,2.62Z"/>
    <path class="st0" d="M309.69,137.75l3.33,5.93-1.72.97c-1.67.94-3.48.19-4.39-1.44-.92-1.65-.61-3.55,1.06-4.5l1.72-.97ZM309.48,138.48l-1.26.71c-1.42.8-1.62,2.37-.84,3.76.78,1.39,2.22,2.05,3.65,1.25l1.26-.71-2.81-5.01Z"/>
    <path class="st0" d="M304.12,140.83l3.08,6.06-3.5,1.78-.24-.47,3.03-1.54-1.14-2.24-2.97,1.51-.24-.47,2.97-1.51-1.22-2.4-3.03,1.54-.24-.47,3.5-1.78Z"/>
    <path class="st0" d="M293.01,146.11l3.72,4.74-1-5.94.54-.24,4.37,5.5-.54.24-3.78-4.87,1.03,6.09-.44.2-3.8-4.86,1.05,6.08-.54.24-1.14-6.93.54-.24Z"/>
    <path class="st0" d="M290,147.37l2.58,6.29-.49.2-2.58-6.29.49-.2Z"/>
    <path class="st0" d="M286.65,148.71l2.26,5.85,1.89-.73.19.49-4.27,1.66-.19-.49,1.89-.73-2.26-5.85.5-.19Z"/>
    <path class="st0" d="M279.09,151.49l1.08,3.05,3.7-1.32-1.08-3.05.5-.18,2.28,6.41-.5.18-1.02-2.86-3.7,1.32,1.02,2.86-.51.18-2.28-6.41.51-.18Z"/>
    <path class="st0" d="M274.9,152.88l2.05,6.48-.5.16-1.89-5.98-2.86.9-.16-.5,3.36-1.06Z"/>
    <path class="st0" d="M270.04,161.59c-1.74.5-3.31-.63-3.87-2.54-.55-1.91.17-3.71,1.91-4.22,1.75-.5,3.31.63,3.87,2.54.55,1.91-.16,3.71-1.91,4.21ZM269.89,161.08c1.44-.42,2-1.89,1.52-3.55-.48-1.65-1.74-2.61-3.18-2.19-1.43.41-2,1.91-1.52,3.55.48,1.67,1.76,2.6,3.18,2.19Z"/>
    <path class="st0" d="M262.36,156.55l4.18,5.93-.59.16-3.74-5.37-.62,6.52-.59.16.72-7.22.64-.17Z"/>
    <path class="st0" d="M258.42,157.56l1.59,6.62-3.81.92-.12-.52,3.3-.79-.59-2.45-3.24.78-.12-.52,3.24-.78-.63-2.62-3.3.79-.12-.52,3.82-.92Z"/>
    <path class="st0" d="M253.27,159.59c-.22.05-.45-.11-.5-.34-.05-.24.09-.49.31-.54.22-.05.45.12.5.36.05.23-.08.47-.3.52Z"/>
    <path class="st0" d="M243.89,160.74l1.18,5.92,1.03-6.36.2-.04,3.4,5.47-1.18-5.92.52-.1,1.33,6.67-.77.15-3.17-5.12-.95,5.94-.78.16-1.33-6.67.53-.11Z"/>
    <path class="st0" d="M237.45,161.91l.91,1.54,3.24-.57.32-1.75.58-.1-1.3,7.14-.65.11-3.69-6.25.58-.1ZM240.78,167.64l.75-4.22-2.92.52,2.17,3.71Z"/>
    <path class="st0" d="M236.01,162.15l1.05,6.72-1.95.31c-1.9.3-3.33-1.04-3.62-2.88-.29-1.86.67-3.54,2.57-3.84l1.95-.31ZM235.57,162.76l-1.43.22c-1.61.25-2.34,1.66-2.1,3.23.25,1.57,1.36,2.7,2.98,2.44l1.43-.22-.88-5.67Z"/>
    <path class="st0" d="M229.69,163.12l.93,6.74-3.89.54-.07-.52,3.37-.46-.34-2.5-3.3.46-.07-.53,3.3-.46-.37-2.67-3.37.46-.07-.53,3.89-.54Z"/>
    <path class="st0" d="M217.44,164.64l2.12,5.64.84-5.97.59-.06,2.51,6.57-.59.06-2.14-5.79-.86,6.11-.48.05-2.16-5.78-.83,6.11-.59.06,1.01-6.95.59-.06Z"/>
    <path class="st0" d="M214.16,164.97l.64,6.77-.53.05-.64-6.77.53-.05Z"/>
    <path class="st0" d="M210.57,165.29l.53,6.25,2.02-.17.04.53-4.57.38-.04-.53,2.02-.17-.53-6.25.54-.04Z"/>
    <path class="st0" d="M202.49,165.89l.22,3.23,3.92-.26-.22-3.23.53-.04.46,6.79-.53.04-.2-3.03-3.92.26.2,3.03-.54.04-.46-6.79.54-.04Z"/>
    <path class="st0" d="M198.06,166.13l.3,6.8-.53.02-.28-6.27-3,.13-.02-.53,3.53-.16Z"/>
    <path class="st0" d="M191.18,173.32c-1.81.05-3.05-1.44-3.11-3.43-.06-1.99,1.1-3.55,2.91-3.61,1.82-.05,3.05,1.44,3.11,3.43s-1.09,3.55-2.91,3.61ZM191.16,172.79c1.5-.04,2.41-1.33,2.36-3.06-.05-1.71-1.03-2.96-2.53-2.91-1.48.04-2.41,1.35-2.36,3.06.05,1.73,1.05,2.96,2.53,2.91Z"/>
    <path class="st0" d="M184.99,166.53l2.61,6.77h-.61s-2.32-6.11-2.32-6.11l-2.18,6.17h-.61s2.45-6.82,2.45-6.82h.66Z"/>
    <path class="st0" d="M180.92,166.57l-.05,6.8-3.92-.03v-.53s3.4.02,3.4.02l.02-2.52-3.33-.02v-.53s3.33.02,3.33.02l.02-2.69-3.4-.02v-.53s3.93.03,3.93.03Z"/>
    <path class="st0" d="M175.44,167.32c-.22,0-.41-.21-.41-.44,0-.24.2-.46.42-.45s.41.22.4.46c0,.23-.19.44-.41.43Z"/>
    <path class="st0" d="M166.02,166.29l-.2,6.03,2.45-5.96h.2s2.06,6.12,2.06,6.12l.2-6.03.53.02-.22,6.8-.79-.03-1.92-5.71-2.28,5.57-.8-.03.22-6.8.54.02Z"/>
    <path class="st0" d="M159.49,165.97l.54,1.7,3.29.17.71-1.64.59.03-2.87,6.66-.66-.03-2.18-6.92.59.03ZM161.44,172.3l1.68-3.94-2.95-.15,1.28,4.1Z"/>
    <path class="st0" d="M158.02,165.88l-.47,6.79-1.97-.14c-1.92-.13-3.02-1.75-2.89-3.62.13-1.88,1.44-3.31,3.35-3.17l1.97.14ZM157.45,166.37l-1.44-.1c-1.63-.11-2.65,1.09-2.76,2.68-.11,1.59.73,2.93,2.37,3.05l1.44.1.4-5.73Z"/>
    <path class="st0" d="M151.64,165.42l-.58,6.78-3.91-.34.04-.53,3.38.29.21-2.51-3.32-.29.04-.53,3.32.29.23-2.68-3.38-.29.05-.53,3.91.34Z"/>
    <path class="st0" d="M139.37,164.21l.82,5.97,2.13-5.64.59.07,1,6.96-.59-.07-.81-6.11-2.18,5.78-.48-.05-.83-6.12-2.16,5.78-.59-.07,2.51-6.56.59.07Z"/>
    <path class="st0" d="M136.09,163.8l-.87,6.75-.52-.07.87-6.75.52.07Z"/>
    <path class="st0" d="M132.5,163.32l-.87,6.21,2,.28-.07.53-4.54-.63.07-.53,2,.28.87-6.21.53.07Z"/>
    <path class="st0" d="M124.5,162.11l-.51,3.19,3.88.61.51-3.19.52.08-1.07,6.72-.52-.08.48-3-3.88-.61-.48,3-.53-.08,1.07-6.72.53.08Z"/>
    <path class="st0" d="M120.14,161.36l-1.24,6.69-.52-.1,1.15-6.17-2.95-.55.1-.52,3.47.64Z"/>
    <path class="st0" d="M111.8,166.79c-1.77-.36-2.64-2.1-2.24-4.05.4-1.95,1.88-3.21,3.65-2.84,1.78.37,2.64,2.1,2.24,4.05-.4,1.95-1.87,3.21-3.65,2.85ZM111.91,166.27c1.47.3,2.65-.74,3-2.44.34-1.68-.33-3.12-1.8-3.42-1.46-.3-2.66.76-3,2.44-.35,1.7.35,3.12,1.8,3.42Z"/>
    <path class="st0" d="M107.34,158.75l.95,7.19-.6-.14-.82-6.49-3.57,5.49-.6-.14,3.99-6.06.64.15Z"/>
    <path class="st0" d="M103.36,157.82l-1.65,6.59-3.81-.96.13-.51,3.29.83.61-2.44-3.23-.81.13-.51,3.23.81.65-2.61-3.3-.83.13-.51,3.81.96Z"/>
    <path class="st0" d="M97.87,157.24c-.22-.06-.35-.3-.29-.53.06-.24.31-.39.52-.34.22.06.34.31.28.55-.06.23-.29.38-.51.32Z"/>
    <path class="st0" d="M89.03,153.89l-1.72,5.79,3.88-5.15.2.06.45,6.43,1.72-5.79.51.15-1.93,6.52-.76-.22-.42-6.01-3.61,4.81-.77-.23,1.93-6.52.52.15Z"/>
    <path class="st0" d="M82.82,151.9l.07,1.78,3.13,1.02,1.11-1.4.56.18-4.52,5.67-.63-.2-.29-7.25.56.18ZM83.05,158.52l2.66-3.37-2.81-.92.16,4.29Z"/>
    <path class="st0" d="M81.43,151.42l-2.3,6.4-1.86-.67c-1.81-.65-2.43-2.5-1.79-4.26.64-1.78,2.28-2.79,4.09-2.14l1.86.67ZM80.75,151.74l-1.36-.49c-1.54-.55-2.85.33-3.39,1.83-.54,1.5-.1,3.02,1.45,3.57l1.36.49,1.94-5.4Z"/>
    <path class="st0" d="M75.44,149.24l-2.47,6.33-3.65-1.43.19-.49,3.16,1.24.92-2.34-3.1-1.22.19-.49,3.1,1.22.98-2.5-3.16-1.24.19-.49,3.65,1.43Z"/>
    <path class="st0" d="M64.09,144.5l-1.04,5.94,3.75-4.73.54.24-1.17,6.93-.54-.24,1.09-6.08-3.84,4.84-.44-.2,1.07-6.08-3.82,4.85-.54-.24,4.4-5.49.54.24Z"/>
    <path class="st0" d="M61.16,143.11l-2.97,6.12-.48-.23,2.97-6.12.48.23Z"/>
    <path class="st0" d="M57.92,141.5l-2.87,5.57,1.8.92-.24.47-4.08-2.1.24-.47,1.8.92,2.87-5.57.48.25Z"/>
    <path class="st0" d="M50.86,137.64l-1.6,2.81,3.41,1.94,1.6-2.81.46.26-3.36,5.91-.46-.26,1.5-2.64-3.41-1.94-1.5,2.64-.47-.27,3.36-5.91.47.27Z"/>
    <path class="st0" d="M47.12,135.35l-3.73,5.69-.44-.29,3.43-5.25-2.51-1.64.29-.44,2.95,1.93Z"/>
    <path class="st0" d="M37.26,136.98c-1.46-1.07-1.53-3.01-.35-4.62,1.17-1.61,3.04-2.14,4.5-1.07,1.47,1.07,1.53,3.01.35,4.62-1.17,1.61-3.03,2.14-4.5,1.07ZM37.57,136.55c1.21.89,2.72.43,3.74-.97,1.01-1.38,1-2.97-.22-3.86-1.2-.88-2.73-.42-3.74.97-1.02,1.4-.98,2.98.22,3.86Z"/>
    <path class="st0" d="M36.65,127.75l-2.42,6.84-.47-.39,2.23-6.15-5.67,3.26-.47-.39,6.31-3.58.5.42Z"/>
    <path class="st0" d="M33.62,125.13l-4.71,4.91-2.83-2.72.37-.38,2.45,2.36,1.75-1.82-2.4-2.31.37-.38,2.4,2.31,1.86-1.94-2.45-2.36.37-.38,2.83,2.72Z"/>
    <path class="st0" d="M29.23,121.9c-.15-.16-.14-.44.03-.61.18-.17.47-.17.62,0,.15.16.12.44-.05.61-.17.16-.45.17-.6,0Z"/>
  </g>
</svg>